<?xml version="1.0" standalone="no"?>
<!DOCTYPE svg PUBLIC "-//W3C//DTD SVG 20010904//EN"
 "http://www.w3.org/TR/2001/REC-SVG-20010904/DTD/svg10.dtd">
<svg version="1.0" xmlns="http://www.w3.org/2000/svg"
 width="1200.000000pt" height="630.000000pt" viewBox="0 0 1200.000000 630.000000"
 preserveAspectRatio="xMidYMid meet">

<g transform="translate(0.000000,630.000000) scale(0.100000,-0.100000)"
fill="#000000" stroke="none">
<path d="M4180 5422 l0 -582 -782 -2 c-780 -3 -783 -3 -830 -25 -60 -27 -134
-101 -161 -161 l-22 -47 -3 -2098 -2 -2097 3618 0 c1990 0 3621 2 3623 4 2 2
2 949 -1 2103 l-5 2098 -25 48 c-30 59 -96 121 -158 150 -47 22 -51 22 -838
25 l-791 2 -1 -535 c0 -294 1 -535 3 -535 2 0 81 59 175 130 94 72 175 130
181 130 5 0 9 -497 9 -1300 0 -1285 0 -1300 -20 -1354 -26 -68 -96 -144 -170
-182 l-55 -29 -624 -3 c-573 -2 -626 -1 -650 14 -25 17 -26 17 -11 -2 8 -10
57 -61 109 -112 l94 -93 -104 -105 c-57 -57 -106 -104 -110 -104 -3 0 -57 52
-119 115 -63 63 -117 115 -121 115 -4 0 -40 -38 -80 -85 -40 -47 -74 -84 -75
-82 -2 2 -22 78 -46 170 l-42 167 -1035 2 -1036 3 -53 28 c-65 34 -125 95
-160 162 l-27 50 -3 1318 c-2 1061 0 1317 10 1311 30 -18 328 -246 333 -254 4
-6 10 -10 16 -10 9 0 2 2219 -7 2229 -2 2 -4 -257 -4 -577z m-115 -909 c-66
-2 -406 -4 -755 -6 l-635 -2 -3 -1370 c-1 -753 -3 -1611 -5 -1905 -1 -294 -3
326 -5 1378 l-2 1912 763 -2 c419 -1 708 -4 642 -5z m5233 2 c-7 -7 -1470 -6
-1476 0 -3 3 329 5 738 5 409 0 741 -2 738 -5z m42 -1925 c0 -1062 -3 -1930
-7 -1930 -5 0 -7 865 -5 1922 2 1535 0 1923 -10 1930 -9 5 -8 8 5 8 16 0 17
-99 17 -1930z m-5183 1734 c-3 -3 -12 -4 -19 -1 -8 3 -5 6 6 6 11 1 17 -2 13
-5z m3700 0 c-3 -3 -12 -4 -19 -1 -8 3 -5 6 6 6 11 1 17 -2 13 -5z m194 -71
c13 -17 13 -17 -6 -3 -11 8 -22 16 -24 17 -2 2 0 3 6 3 6 0 17 -8 24 -17z
m-4101 -7 c0 -2 -7 -9 -15 -16 -13 -11 -14 -10 -9 4 5 14 24 23 24 12z m-1250
-3571 c5 3 10 1 10 -4 0 -6 -11 -11 -25 -11 -16 0 -25 6 -25 16 0 13 3 14 15
4 8 -6 19 -9 25 -5z m6595 -5 c3 -5 1 -10 -4 -10 -6 0 -11 5 -11 10 0 6 2 10
4 10 3 0 8 -4 11 -10z"/>
<path d="M6408 1463 c7 -3 16 -2 19 1 4 3 -2 6 -13 5 -11 0 -14 -3 -6 -6z"/>
<path d="M9783 423 c82 -2 212 -2 290 0 78 1 12 3 -148 3 -159 0 -223 -2 -142
-3z"/>
<path d="M10222 375 c0 -16 2 -22 5 -12 2 9 2 23 0 30 -3 6 -5 -1 -5 -18z"/>
<path d="M10222 310 c0 -14 2 -19 5 -12 2 6 2 18 0 25 -3 6 -5 1 -5 -13z"/>
<path d="M10201 234 c-17 -47 -65 -100 -115 -127 l-41 -22 -4025 -5 -4025 -5
4030 0 4030 0 41 22 c49 26 99 83 115 130 15 46 6 52 -10 7z"/>
<path d="M1910 103 c0 -4 65 -33 75 -33 3 0 5 4 5 8 0 4 -18 13 -40 19 -22 5
-40 8 -40 6z"/>
</g>
</svg>
